<svg width="15" height="15" viewBox="0 0 22 22" fill="none" xmlns="http://www.w3.org/2000/svg">
<path d="M15.5835 1.8335H6.41683C3.88552 1.8335 1.8335 3.88552 1.8335 6.41683V15.5835C1.8335 18.1148 3.88552 20.1668 6.41683 20.1668H15.5835C18.1148 20.1668 20.1668 18.1148 20.1668 15.5835V6.41683C20.1668 3.88552 18.1148 1.8335 15.5835 1.8335Z" stroke="black" stroke-opacity="0.8" stroke-width="1.6" stroke-linecap="round" stroke-linejoin="round"/>
<path d="M14.6667 10.4223C14.7799 11.1852 14.6495 11.9643 14.2943 12.6489C13.9391 13.3335 13.3771 13.8886 12.6882 14.2353C11.9993 14.5821 11.2186 14.7028 10.4572 14.5802C9.69576 14.4577 8.99234 14.0982 8.44699 13.5529C7.90165 13.0075 7.54214 12.3041 7.41962 11.5427C7.29709 10.7812 7.41778 10.0005 7.76452 9.31163C8.11126 8.62274 8.66639 8.06072 9.35096 7.70551C10.0355 7.3503 10.8147 7.21999 11.5776 7.33312C12.3557 7.44852 13.0762 7.81113 13.6324 8.3674C14.1887 8.92368 14.5513 9.64411 14.6667 10.4223Z" stroke="black" stroke-opacity="0.8" stroke-width="1.6" stroke-linecap="round" stroke-linejoin="round"/>
<path d="M16.0415 5.9585H16.0515" stroke="black" stroke-opacity="0.8" stroke-width="2" stroke-linecap="round" stroke-linejoin="round"/>
</svg>
