<svg width="22" height="22" viewBox="0 0 22 22" fill="none" xmlns="http://www.w3.org/2000/svg">
<path d="M14.6665 7.3335C16.1252 7.3335 17.5241 7.91296 18.5556 8.94441C19.587 9.97586 20.1665 11.3748 20.1665 12.8335V19.2502H16.4998V12.8335C16.4998 12.3473 16.3067 11.881 15.9629 11.5371C15.619 11.1933 15.1527 11.0002 14.6665 11.0002C14.1803 11.0002 13.714 11.1933 13.3701 11.5371C13.0263 11.881 12.8332 12.3473 12.8332 12.8335V19.2502H9.1665V12.8335C9.1665 11.3748 9.74597 9.97586 10.7774 8.94441C11.8089 7.91296 13.2078 7.3335 14.6665 7.3335Z" stroke="white" stroke-opacity="1" stroke-width="1.2" stroke-linecap="round" stroke-linejoin="round"/>
<path d="M5.50016 8.25H1.8335V19.25H5.50016V8.25Z" stroke="white" stroke-opacity="1" stroke-width="1.2" stroke-linecap="round" stroke-linejoin="round"/>
<path d="M3.66683 5.50016C4.67935 5.50016 5.50016 4.67935 5.50016 3.66683C5.50016 2.65431 4.67935 1.8335 3.66683 1.8335C2.65431 1.8335 1.8335 2.65431 1.8335 3.66683C1.8335 4.67935 2.65431 5.50016 3.66683 5.50016Z" stroke="white" stroke-opacity="1" stroke-width="1.2" stroke-linecap="round" stroke-linejoin="round"/>
</svg>
