<svg width="22" height="22" viewBox="0 0 22 22" fill="none" xmlns="http://www.w3.org/2000/svg">
<path d="M21.0832 2.74994C20.2054 3.36913 19.2334 3.84271 18.2048 4.15244C17.6528 3.51766 16.9191 3.06774 16.103 2.86354C15.2868 2.65934 14.4277 2.7107 13.6417 3.01069C12.8558 3.31068 12.1809 3.84481 11.7084 4.54085C11.2359 5.23689 10.9886 6.06125 10.9998 6.90244V7.81911C9.38892 7.86088 7.79267 7.5036 6.35326 6.7791C4.91385 6.0546 3.67596 4.98536 2.74984 3.66661C2.74984 3.66661 -0.91683 11.9166 7.33317 15.5833C5.44532 16.8647 3.1964 17.5073 0.916504 17.4166C9.1665 21.9999 19.2498 17.4166 19.2498 6.87494C19.249 6.61961 19.2244 6.3649 19.1765 6.11411C20.1121 5.19148 20.7723 4.02659 21.0832 2.74994Z" stroke="black" stroke-opacity="0.8" stroke-width="1.6" stroke-linecap="round" stroke-linejoin="round"/>
</svg>
